<svg width="927" height="927" viewBox="0 0 927 927" fill="none" xmlns="http://www.w3.org/2000/svg">
<rect width="927" height="927" rx="100" fill="black"/>
<path d="M535 702.5C417 702.5 535.5 463 367 463C535.5 463 417 223.5 535 223.5M157 583H337C353.569 583 367 569.569 367 553V373C367 356.431 353.569 343 337 343H157C140.431 343 127 356.431 127 373V553C127 569.569 140.431 583 157 583ZM565 343H745C761.569 343 775 329.569 775 313V133C775 116.431 761.569 103 745 103H565C548.431 103 535 116.431 535 133V313C535 329.569 548.431 343 565 343ZM565 823H745C761.569 823 775 809.569 775 793V613C775 596.431 761.569 583 745 583H565C548.431 583 535 596.431 535 613V793C535 809.569 548.431 823 565 823Z" stroke="white" stroke-width="20"/>
</svg>
