<svg width="668" height="740" viewBox="0 0 668 740" fill="none" xmlns="http://www.w3.org/2000/svg">
<path d="M418 609.5C300 609.5 418.5 370 250 370C418.5 370 300 130.5 418 130.5M40 490H220C236.569 490 250 476.569 250 460V280C250 263.431 236.569 250 220 250H40C23.4315 250 10 263.431 10 280V460C10 476.569 23.4315 490 40 490ZM448 250H628C644.569 250 658 236.569 658 220V40C658 23.4315 644.569 10 628 10H448C431.431 10 418 23.4315 418 40V220C418 236.569 431.431 250 448 250ZM448 730H628C644.569 730 658 716.569 658 700V520C658 503.431 644.569 490 628 490H448C431.431 490 418 503.431 418 520V700C418 716.569 431.431 730 448 730Z" stroke="white" stroke-width="20"/>
</svg>
